<svg width="32" height="32" viewBox="0 0 32 32" fill="none" xmlns="http://www.w3.org/2000/svg">
<path fill-rule="evenodd" clip-rule="evenodd" d="M3.83709 3.34794L3.70182 3.3338C3.20958 3.3158 2.76753 3.66391 2.68119 4.16275L2.66705 4.29801C2.64905 4.79026 2.99716 5.23231 3.496 5.31864L5.50801 5.66663L6.72738 20.1943L6.75262 20.4126C6.99795 22.0692 8.42281 23.3146 10.1199 23.3146H24.6692L24.8883 23.3076C26.4834 23.2058 27.806 21.9995 28.0388 20.3971L29.3042 11.6525L29.3261 11.4516C29.4425 9.85288 28.176 8.46529 26.5452 8.46529H7.74935L7.43637 4.72965L7.41279 4.58184C7.32153 4.19742 7.00902 3.89693 6.61042 3.82794L3.83709 3.34794ZM9.96529 21.3062C9.30493 21.2339 8.77682 20.7036 8.72042 20.0275L7.91735 10.4653H26.5452L26.6627 10.4739C27.0838 10.5365 27.3879 10.9302 27.3248 11.3662L26.0595 20.1101L26.0278 20.2664C25.8673 20.8778 25.3134 21.3146 24.6692 21.3146H10.1199L9.96529 21.3062ZM7.87775 27.447C7.87775 26.3322 8.78131 25.427 9.89641 25.427C11.0114 25.427 11.9164 26.3321 11.9164 27.447C11.9164 28.5621 11.0112 29.4657 9.89641 29.4657C8.78146 29.4657 7.87775 28.562 7.87775 27.447ZM22.8796 27.447C22.8796 26.3321 23.7847 25.427 24.8996 25.427C26.0146 25.427 26.9196 26.3321 26.9196 27.447C26.9196 28.5621 26.0144 29.4657 24.8996 29.4657C23.7848 29.4657 22.8796 28.5621 22.8796 27.447Z" fill="#4174CB"/>
</svg>
