<svg width="71" height="52" viewBox="0 0 71 52" fill="none" xmlns="http://www.w3.org/2000/svg">
<path fill-rule="evenodd" clip-rule="evenodd" d="M28.1441 3.75376C23.2486 5.32987 21.0651 10.6743 22.7064 15.7727C23.5393 18.1735 24.8938 20.3313 26.6733 22.1017C29.1146 24.4727 31.7967 26.5592 34.6798 28.3322L35.0072 28.5282C35.3208 28.7159 35.713 28.7126 36.0234 28.5197L36.3291 28.3297C39.2082 26.5592 41.8902 24.4727 44.3232 22.1099C46.1111 20.3313 47.4656 18.1735 48.2915 15.7936C49.9388 10.6774 47.7462 5.33044 42.8493 3.75384L42.495 3.64835C40.2498 3.03082 37.8639 3.33511 35.8526 4.47384L35.4951 4.68577L35.1439 4.47502C33.0225 3.27129 30.4872 3.00008 28.1441 3.75376ZM34.6662 6.4724L34.9285 6.66055C35.2743 6.90819 35.7408 6.90327 36.0813 6.64838C37.8546 5.32079 40.1496 4.93447 42.2521 5.60896C46.0462 6.8305 47.7729 11.0413 46.4419 15.176C45.7199 17.2557 44.5249 19.1595 42.9555 20.7207L42.2515 21.3895C40.3546 23.1523 38.3034 24.748 36.1255 26.1542L35.5016 26.5465L35.692 26.6665C32.9406 24.9745 30.3716 22.9759 28.041 20.7125C26.48 19.1595 25.285 17.2557 24.5561 15.1552C23.2307 11.0374 24.9499 6.82953 28.742 5.60865C30.7444 4.96456 32.9274 5.2839 34.6662 6.4724Z" fill="#4174CB"/>
<circle cx="48.833" cy="8" r="6.9" fill="#FFB745" stroke="white" stroke-width="1.8"/>
<path d="M0.98 38.2H2.436V45.592H2.464L7.28 38.2H8.806V48H7.35V40.608H7.322L2.506 48H0.98V38.2ZM12.7431 48.21C11.6791 48.21 10.7877 48.0047 10.0691 47.594L10.6431 46.418C11.3057 46.7727 12.0197 46.95 12.7851 46.95C13.8304 46.95 14.3531 46.656 14.3531 46.068C14.3531 45.4893 13.9004 45.2 12.9951 45.2H11.6511V44.01H12.8971C13.6904 44.01 14.0871 43.7767 14.0871 43.31C14.0871 42.8247 13.6671 42.582 12.8271 42.582C12.1831 42.582 11.4784 42.7313 10.7131 43.03L10.2511 41.798C11.1097 41.4807 11.9964 41.322 12.9111 41.322C13.7417 41.322 14.3811 41.4667 14.8291 41.756C15.2864 42.0453 15.5151 42.456 15.5151 42.988C15.5151 43.3987 15.3797 43.7393 15.1091 44.01C14.8384 44.2807 14.4744 44.4487 14.0171 44.514V44.556C14.5491 44.6027 14.9644 44.7613 15.2631 45.032C15.5711 45.3027 15.7251 45.69 15.7251 46.194C15.7251 46.8287 15.4731 47.3233 14.9691 47.678C14.4744 48.0327 13.7324 48.21 12.7431 48.21ZM20.1785 48.21C19.1052 48.21 18.2325 47.8647 17.5605 47.174C16.8978 46.4833 16.5665 45.41 16.5665 43.954C16.5665 41.826 17.1358 40.398 18.2745 39.67C18.4425 39.558 18.6525 39.4553 18.9045 39.362C19.1658 39.2593 19.3945 39.18 19.5905 39.124C19.7958 39.068 20.0572 39.0027 20.3745 38.928C20.7012 38.844 20.9252 38.7833 21.0465 38.746C21.5318 38.6153 21.7792 38.4147 21.7885 38.144H23.1465C23.1465 38.6573 23.0438 39.04 22.8385 39.292C22.6425 39.5347 22.3158 39.7213 21.8585 39.852C21.6812 39.908 21.3872 39.9827 20.9765 40.076C20.5752 40.16 20.2065 40.2533 19.8705 40.356C19.5345 40.4493 19.2592 40.552 19.0445 40.664C18.3445 41.056 17.9292 41.8633 17.7985 43.086H17.8405C18.0738 42.5447 18.4285 42.1293 18.9045 41.84C19.3805 41.5507 19.9405 41.406 20.5845 41.406C21.5365 41.406 22.2972 41.7093 22.8665 42.316C23.4452 42.9227 23.7345 43.716 23.7345 44.696C23.7345 45.7413 23.4125 46.5907 22.7685 47.244C22.1245 47.888 21.2612 48.21 20.1785 48.21ZM18.6945 46.306C19.0958 46.6793 19.5952 46.866 20.1925 46.866C20.7898 46.866 21.2845 46.6793 21.6765 46.306C22.0778 45.9233 22.2785 45.41 22.2785 44.766C22.2785 44.122 22.0778 43.6133 21.6765 43.24C21.2845 42.8573 20.7898 42.666 20.1925 42.666C19.5952 42.666 19.0958 42.8573 18.6945 43.24C18.3025 43.6133 18.1065 44.122 18.1065 44.766C18.1065 45.41 18.3025 45.9233 18.6945 46.306ZM24.9982 50.8V41.532H26.3702V42.484H26.3982C26.8462 41.7093 27.5742 41.322 28.5822 41.322C29.4689 41.322 30.2155 41.6347 30.8222 42.26C31.4289 42.8853 31.7322 43.7207 31.7322 44.766C31.7322 45.8113 31.4289 46.6467 30.8222 47.272C30.2155 47.8973 29.4689 48.21 28.5822 48.21C27.5742 48.21 26.8462 47.8227 26.3982 47.048H26.3702V50.8H24.9982ZM26.8462 46.292C27.2102 46.6747 27.6909 46.866 28.2882 46.866C28.8855 46.866 29.3662 46.6747 29.7302 46.292C30.0942 45.9 30.2762 45.3913 30.2762 44.766C30.2762 44.1407 30.0942 43.6367 29.7302 43.254C29.3662 42.862 28.8855 42.666 28.2882 42.666C27.6909 42.666 27.2102 42.862 26.8462 43.254C26.4822 43.6367 26.3002 44.1407 26.3002 44.766C26.3002 45.3913 26.4822 45.9 26.8462 46.292ZM35.7263 48.21C34.8396 48.21 34.0929 47.8973 33.4863 47.272C32.8796 46.6467 32.5763 45.8113 32.5763 44.766C32.5763 43.7207 32.8796 42.8853 33.4863 42.26C34.0929 41.6347 34.8396 41.322 35.7263 41.322C36.7343 41.322 37.4623 41.7093 37.9103 42.484H37.9383V41.532H39.3103V48H37.9383V47.048H37.9103C37.4623 47.8227 36.7343 48.21 35.7263 48.21ZM34.5783 46.292C34.9423 46.6747 35.4229 46.866 36.0203 46.866C36.6176 46.866 37.0983 46.6747 37.4623 46.292C37.8263 45.9 38.0083 45.3913 38.0083 44.766C38.0083 44.1407 37.8263 43.6367 37.4623 43.254C37.0983 42.862 36.6176 42.666 36.0203 42.666C35.4229 42.666 34.9423 42.862 34.5783 43.254C34.2143 43.6367 34.0323 44.1407 34.0323 44.766C34.0323 45.3913 34.2143 45.9 34.5783 46.292ZM45.6563 41.532H47.0283V48H45.6563V45.284H42.3663V48H40.9943V41.532H42.3663V43.996H45.6563V41.532ZM53.3672 41.532H54.7392V48H53.3672V45.284H50.0772V48H48.7052V41.532H50.0772V43.996H53.3672V41.532ZM57.0042 42.302C57.6762 41.6487 58.5208 41.322 59.5382 41.322C60.5555 41.322 61.4002 41.6487 62.0722 42.302C62.7442 42.9553 63.0802 43.7767 63.0802 44.766C63.0802 45.7553 62.7442 46.5767 62.0722 47.23C61.4002 47.8833 60.5555 48.21 59.5382 48.21C58.5208 48.21 57.6762 47.8833 57.0042 47.23C56.3322 46.5767 55.9962 45.7553 55.9962 44.766C55.9962 43.7767 56.3322 42.9553 57.0042 42.302ZM61.0362 43.24C60.6535 42.8573 60.1542 42.666 59.5382 42.666C58.9222 42.666 58.4182 42.8573 58.0262 43.24C57.6435 43.6227 57.4522 44.1313 57.4522 44.766C57.4522 45.4007 57.6435 45.9093 58.0262 46.292C58.4182 46.6747 58.9222 46.866 59.5382 46.866C60.1542 46.866 60.6535 46.6747 61.0362 46.292C61.4282 45.9093 61.6242 45.4007 61.6242 44.766C61.6242 44.1313 61.4282 43.6227 61.0362 43.24ZM67.2299 41.322C68.2005 41.322 68.9565 41.6347 69.4979 42.26C70.0485 42.876 70.3239 43.7113 70.3239 44.766V44.99H65.3119C65.3399 45.5593 65.5312 46.0213 65.8859 46.376C66.2499 46.7213 66.7119 46.894 67.2719 46.894C68.0372 46.894 68.6999 46.516 69.2599 45.76L70.2259 46.67C69.4792 47.6967 68.5039 48.21 67.2999 48.21C66.2732 48.21 65.4519 47.8973 64.8359 47.272C64.2292 46.6373 63.9259 45.8067 63.9259 44.78C63.9259 43.772 64.2199 42.946 64.8079 42.302C65.4052 41.6487 66.2125 41.322 67.2299 41.322ZM67.1459 42.582C66.6699 42.582 66.2779 42.7033 65.9699 42.946C65.6619 43.1887 65.4659 43.5387 65.3819 43.996H68.8399C68.8119 43.548 68.6439 43.2027 68.3359 42.96C68.0372 42.708 67.6405 42.582 67.1459 42.582Z" fill="#333333"/>
</svg>
