<svg width="38" height="20" viewBox="0 0 38 20" fill="none" xmlns="http://www.w3.org/2000/svg">
<rect width="38" height="20" rx="4" fill="#E7552C"/>
<path d="M8.73908 9.618V10.962H5.08508V9.618H8.73908ZM12.8493 4.34C13.7266 4.34 14.4266 4.564 14.9493 5.012C15.4813 5.45067 15.7473 6.034 15.7473 6.762C15.7473 7.31267 15.5979 7.784 15.2993 8.176C15.0006 8.568 14.5853 8.82467 14.0533 8.946V8.974C14.7066 9.04867 15.2059 9.296 15.5513 9.716C15.9059 10.1267 16.0833 10.6773 16.0833 11.368C16.0833 12.2547 15.8033 12.95 15.2433 13.454C14.6926 13.958 13.9319 14.21 12.9613 14.21C11.9906 14.21 11.2253 13.9673 10.6653 13.482C10.1053 12.9967 9.81128 12.3247 9.78328 11.466H11.1553C11.1926 11.9233 11.3699 12.2827 11.6873 12.544C12.0046 12.796 12.4293 12.922 12.9613 12.922C14.0813 12.922 14.6413 12.376 14.6413 11.284C14.6413 10.7053 14.4639 10.29 14.1093 10.038C13.7639 9.786 13.1993 9.66467 12.4153 9.674H11.9673V8.442H12.4153C13.6846 8.442 14.3193 7.96133 14.3193 7C14.3193 6.56133 14.1886 6.22533 13.9273 5.992C13.6753 5.74933 13.3066 5.628 12.8213 5.628C12.3266 5.628 11.9393 5.74467 11.6593 5.978C11.3886 6.202 11.2486 6.52867 11.2393 6.958H9.86728C9.89528 6.15533 10.1753 5.52067 10.7073 5.054C11.2486 4.578 11.9626 4.34 12.8493 4.34ZM16.8516 14V12.992L20.1136 9.296C20.571 8.78267 20.8883 8.358 21.0656 8.022C21.2523 7.686 21.3456 7.35933 21.3456 7.042C21.3456 6.61267 21.2103 6.272 20.9396 6.02C20.6783 5.75867 20.319 5.628 19.8616 5.628C19.3763 5.628 18.989 5.768 18.6996 6.048C18.4103 6.31867 18.261 6.69667 18.2516 7.182H16.8796C16.8983 6.30467 17.1783 5.614 17.7196 5.11C18.2703 4.59667 19.003 4.34 19.9176 4.34C20.8043 4.34 21.4996 4.57333 22.0036 5.04C22.517 5.50667 22.7736 6.15067 22.7736 6.972C22.7736 7.45733 22.657 7.93333 22.4236 8.4C22.1996 8.86667 21.8123 9.40333 21.2616 10.01L18.8536 12.684H22.7596V14H16.8516ZM24.7203 4.97C25.1403 4.55 25.6816 4.34 26.3443 4.34C27.007 4.34 27.5436 4.55 27.9543 4.97C28.3743 5.39 28.5843 5.92667 28.5843 6.58C28.5843 7.23333 28.3743 7.77 27.9543 8.19C27.5436 8.61 27.007 8.82 26.3443 8.82C25.6816 8.82 25.1403 8.61 24.7203 8.19C24.3096 7.77 24.1043 7.23333 24.1043 6.58C24.1043 5.92667 24.3096 5.39 24.7203 4.97ZM25.4763 14L31.0063 4.55H31.8043L26.2743 14H25.4763ZM27.3663 5.53C27.1143 5.25933 26.7736 5.124 26.3443 5.124C25.915 5.124 25.5743 5.25933 25.3223 5.53C25.0703 5.80067 24.9443 6.15067 24.9443 6.58C24.9443 7.00933 25.0703 7.35933 25.3223 7.63C25.5743 7.90067 25.915 8.036 26.3443 8.036C26.7736 8.036 27.1143 7.90067 27.3663 7.63C27.6183 7.35933 27.7443 7.00933 27.7443 6.58C27.7443 6.15067 27.6183 5.80067 27.3663 5.53ZM29.4383 10.22C29.8583 9.8 30.3996 9.59 31.0623 9.59C31.725 9.59 32.2616 9.8 32.6723 10.22C33.0923 10.64 33.3023 11.1767 33.3023 11.83C33.3023 12.4833 33.0923 13.02 32.6723 13.44C32.2616 13.86 31.725 14.07 31.0623 14.07C30.3996 14.07 29.8583 13.86 29.4383 13.44C29.0276 13.02 28.8223 12.4833 28.8223 11.83C28.8223 11.1767 29.0276 10.64 29.4383 10.22ZM32.0843 10.78C31.8323 10.5093 31.4916 10.374 31.0623 10.374C30.633 10.374 30.2923 10.5093 30.0403 10.78C29.7883 11.0507 29.6623 11.4007 29.6623 11.83C29.6623 12.2593 29.7883 12.6093 30.0403 12.88C30.2923 13.1507 30.633 13.286 31.0623 13.286C31.4916 13.286 31.8323 13.1507 32.0843 12.88C32.3363 12.6093 32.4623 12.2593 32.4623 11.83C32.4623 11.4007 32.3363 11.0507 32.0843 10.78Z" fill="white"/>
</svg>
