<svg width="48" height="48" viewBox="0 0 48 48" fill="none" xmlns="http://www.w3.org/2000/svg">
<rect width="48" height="48" rx="24" fill="#4174CB"/>
<rect x="8" y="8" width="32" height="32" rx="16" fill="#4174CB"/>
<path d="M13.3334 24.3333C13.3334 24.8856 13.7811 25.3333 14.3334 25.3333L29.56 25.3333L25.4918 29.4129C25.1022 29.8036 25.1027 30.436 25.4928 30.8261L25.9596 31.2929C26.3501 31.6834 26.9833 31.6834 27.3738 31.2929L34.6667 24L27.3738 16.7071C26.9833 16.3166 26.3501 16.3166 25.9596 16.7071L25.4928 17.1739C25.1027 17.564 25.1023 18.1964 25.4918 18.5871L29.56 22.6667L14.3334 22.6667C13.7811 22.6667 13.3334 23.1144 13.3334 23.6667L13.3334 24.3333Z" fill="white"/>
</svg>
