<svg width="54" height="52" viewBox="0 0 54 52" fill="none" xmlns="http://www.w3.org/2000/svg">
<path fill-rule="evenodd" clip-rule="evenodd" d="M14.8371 3.34794L14.7018 3.3338C14.2096 3.3158 13.7675 3.66391 13.6812 4.16275L13.667 4.29801C13.6491 4.79026 13.9972 5.23231 14.496 5.31864L16.508 5.66663L17.7274 20.1943L17.7526 20.4126C17.9979 22.0692 19.4228 23.3146 21.1199 23.3146H35.6692L35.8883 23.3076C37.4834 23.2058 38.806 21.9995 39.0388 20.3971L40.3042 11.6525L40.3261 11.4516C40.4425 9.85288 39.176 8.46529 37.5452 8.46529H18.7493L18.4364 4.72965L18.4128 4.58184C18.3215 4.19742 18.009 3.89693 17.6104 3.82794L14.8371 3.34794ZM20.9653 21.3062C20.3049 21.2339 19.7768 20.7036 19.7204 20.0275L18.9173 10.4653H37.5452L37.6627 10.4739C38.0838 10.5365 38.3879 10.9302 38.3248 11.3662L37.0595 20.1101L37.0278 20.2664C36.8673 20.8778 36.3134 21.3146 35.6692 21.3146H21.1199L20.9653 21.3062ZM18.8777 27.447C18.8777 26.3322 19.7813 25.427 20.8964 25.427C22.0114 25.427 22.9164 26.3321 22.9164 27.447C22.9164 28.5621 22.0112 29.4657 20.8964 29.4657C19.7815 29.4657 18.8777 28.562 18.8777 27.447ZM33.8796 27.447C33.8796 26.3321 34.7847 25.427 35.8996 25.427C37.0146 25.427 37.9196 26.3321 37.9196 27.447C37.9196 28.5621 37.0144 29.4657 35.8996 29.4657C34.7848 29.4657 33.8796 28.5621 33.8796 27.447Z" fill="#4174CB"/>
<circle cx="40.333" cy="8" r="6.9" fill="#FFB745" stroke="white" stroke-width="1.8"/>
<path d="M9.016 48H6.86L2.436 43.114V48H0.98V38.2H2.436V42.554L6.328 38.2H8.344L4.088 42.694L9.016 48ZM9.82253 42.302C10.4945 41.6487 11.3392 41.322 12.3565 41.322C13.3739 41.322 14.2185 41.6487 14.8905 42.302C15.5625 42.9553 15.8985 43.7767 15.8985 44.766C15.8985 45.7553 15.5625 46.5767 14.8905 47.23C14.2185 47.8833 13.3739 48.21 12.3565 48.21C11.3392 48.21 10.4945 47.8833 9.82253 47.23C9.15053 46.5767 8.81453 45.7553 8.81453 44.766C8.81453 43.7767 9.15053 42.9553 9.82253 42.302ZM13.8545 43.24C13.4719 42.8573 12.9725 42.666 12.3565 42.666C11.7405 42.666 11.2365 42.8573 10.8445 43.24C10.4619 43.6227 10.2705 44.1313 10.2705 44.766C10.2705 45.4007 10.4619 45.9093 10.8445 46.292C11.2365 46.6747 11.7405 46.866 12.3565 46.866C12.9725 46.866 13.4719 46.6747 13.8545 46.292C14.2465 45.9093 14.4425 45.4007 14.4425 44.766C14.4425 44.1313 14.2465 43.6227 13.8545 43.24ZM17.1642 50.8V41.532H18.5362V42.484H18.5642C19.0122 41.7093 19.7402 41.322 20.7482 41.322C21.6349 41.322 22.3816 41.6347 22.9882 42.26C23.5949 42.8853 23.8982 43.7207 23.8982 44.766C23.8982 45.8113 23.5949 46.6467 22.9882 47.272C22.3816 47.8973 21.6349 48.21 20.7482 48.21C19.7402 48.21 19.0122 47.8227 18.5642 47.048H18.5362V50.8H17.1642ZM19.0122 46.292C19.3762 46.6747 19.8569 46.866 20.4542 46.866C21.0516 46.866 21.5322 46.6747 21.8962 46.292C22.2602 45.9 22.4422 45.3913 22.4422 44.766C22.4422 44.1407 22.2602 43.6367 21.8962 43.254C21.5322 42.862 21.0516 42.666 20.4542 42.666C19.8569 42.666 19.3762 42.862 19.0122 43.254C18.6482 43.6367 18.4662 44.1407 18.4662 44.766C18.4662 45.3913 18.6482 45.9 19.0122 46.292ZM27.0028 48.21C25.9388 48.21 25.0475 48.0047 24.3288 47.594L24.9028 46.418C25.5655 46.7727 26.2795 46.95 27.0448 46.95C28.0902 46.95 28.6128 46.656 28.6128 46.068C28.6128 45.4893 28.1602 45.2 27.2548 45.2H25.9108V44.01H27.1568C27.9502 44.01 28.3468 43.7767 28.3468 43.31C28.3468 42.8247 27.9268 42.582 27.0868 42.582C26.4428 42.582 25.7382 42.7313 24.9728 43.03L24.5108 41.798C25.3695 41.4807 26.2562 41.322 27.1708 41.322C28.0015 41.322 28.6408 41.4667 29.0888 41.756C29.5462 42.0453 29.7748 42.456 29.7748 42.988C29.7748 43.3987 29.6395 43.7393 29.3688 44.01C29.0982 44.2807 28.7342 44.4487 28.2768 44.514V44.556C28.8088 44.6027 29.2242 44.7613 29.5228 45.032C29.8308 45.3027 29.9848 45.69 29.9848 46.194C29.9848 46.8287 29.7328 47.3233 29.2288 47.678C28.7342 48.0327 27.9922 48.21 27.0028 48.21ZM31.2463 48V41.532H32.6183V45.83H32.6463L35.8523 41.532H37.1263V48H35.7543V43.702H35.7263L32.5203 48H31.2463ZM43.4688 41.532H44.8408V48H43.4688V45.284H40.1788V48H38.8068V41.532H40.1788V43.996H43.4688V41.532ZM49.2477 48.21C48.3611 48.21 47.6144 47.8973 47.0077 47.272C46.4011 46.6467 46.0977 45.8113 46.0977 44.766C46.0977 43.7207 46.4011 42.8853 47.0077 42.26C47.6144 41.6347 48.3611 41.322 49.2477 41.322C50.2557 41.322 50.9837 41.7093 51.4317 42.484H51.4597V41.532H52.8317V48H51.4597V47.048H51.4317C50.9837 47.8227 50.2557 48.21 49.2477 48.21ZM48.0997 46.292C48.4637 46.6747 48.9444 46.866 49.5417 46.866C50.1391 46.866 50.6197 46.6747 50.9837 46.292C51.3477 45.9 51.5297 45.3913 51.5297 44.766C51.5297 44.1407 51.3477 43.6367 50.9837 43.254C50.6197 42.862 50.1391 42.666 49.5417 42.666C48.9444 42.666 48.4637 42.862 48.0997 43.254C47.7357 43.6367 47.5537 44.1407 47.5537 44.766C47.5537 45.3913 47.7357 45.9 48.0997 46.292Z" fill="#333333"/>
</svg>
