<svg width="48" height="48" viewBox="0 0 48 48" fill="none" xmlns="http://www.w3.org/2000/svg">
<rect x="48" y="48" width="48" height="48" rx="24" transform="rotate(-180 48 48)" fill="#4174CB"/>
<rect x="40" y="40" width="32" height="32" rx="16" transform="rotate(-180 40 40)" fill="#4174CB"/>
<path d="M34.6667 23.6667C34.6667 23.1144 34.219 22.6667 33.6667 22.6667L18.44 22.6667L22.5082 18.5871C22.8978 18.1964 22.8974 17.564 22.5072 17.1739L22.0405 16.7071C21.6499 16.3166 21.0168 16.3166 20.6262 16.7071L13.3334 24L20.6262 31.2929C21.0168 31.6834 21.6499 31.6834 22.0405 31.2929L22.5072 30.8261C22.8974 30.436 22.8978 29.8036 22.5082 29.4129L18.44 25.3333L33.6667 25.3333C34.219 25.3333 34.6667 24.8856 34.6667 24.3333L34.6667 23.6667Z" fill="white"/>
</svg>
