<svg width="37" height="37" viewBox="0 0 37 37" fill="none" xmlns="http://www.w3.org/2000/svg">
<rect y="5" width="32" height="32" rx="16" fill="#4174CB"/>
<path fill-rule="evenodd" clip-rule="evenodd" d="M7.63799 12.3017L7.545 12.292C7.20658 12.2797 6.90267 12.519 6.84331 12.8619L6.83359 12.9549C6.82122 13.2933 7.06054 13.5972 7.40349 13.6566L8.78675 13.8958L9.62507 23.8836L9.64242 24.0337C9.81108 25.1726 10.7907 26.0288 11.9574 26.0288H21.9601L22.1107 26.024C23.2074 25.954 24.1166 25.1247 24.2767 24.023L25.1467 18.0111L25.1617 17.873C25.2417 16.7739 24.371 15.8199 23.2498 15.8199H10.3277L10.1125 13.2517L10.0963 13.1501C10.0335 12.8858 9.81869 12.6792 9.54466 12.6317L7.63799 12.3017ZM11.8511 24.6481C11.3971 24.5983 11.0341 24.2338 10.9953 23.7689L10.4432 17.1949H23.2498L23.3306 17.2009C23.6201 17.2439 23.8292 17.5146 23.7858 17.8143L22.9159 23.8257L22.8941 23.9332C22.7838 24.3535 22.4029 24.6538 21.9601 24.6538H11.9574L11.8511 24.6481ZM10.4159 28.8699C10.4159 28.1034 11.0371 27.4811 11.8038 27.4811C12.5703 27.4811 13.1925 28.1033 13.1925 28.8699C13.1925 29.6365 12.5702 30.2577 11.8038 30.2577C11.0372 30.2577 10.4159 29.6364 10.4159 28.8699ZM20.7297 28.8699C20.7297 28.1033 21.3519 27.4811 22.1185 27.4811C22.885 27.4811 23.5072 28.1033 23.5072 28.8699C23.5072 29.6365 22.8849 30.2577 22.1185 30.2577C21.352 30.2577 20.7297 29.6365 20.7297 28.8699Z" fill="white"/>
<circle cx="29" cy="8" r="8" fill="#FFB745"/>
<path d="M23.4671 12.5L26.5741 8.691L26.5481 8.665C26.0974 9.159 25.5124 9.406 24.7931 9.406C24.0131 9.406 23.3631 9.12867 22.8431 8.574C22.3231 8.01933 22.0631 7.33033 22.0631 6.507C22.0631 5.63167 22.3447 4.91667 22.9081 4.362C23.4801 3.80733 24.2124 3.53 25.1051 3.53C26.0411 3.53 26.7777 3.82467 27.3151 4.414C27.8611 5.00333 28.1341 5.80067 28.1341 6.806C28.1341 7.44733 28.0041 8.067 27.7441 8.665C27.4927 9.25433 27.0681 9.92167 26.4701 10.667L24.9881 12.5H23.4671ZM25.1181 8.236C25.6294 8.236 26.0411 8.08 26.3531 7.768C26.6651 7.44733 26.8211 7.02267 26.8211 6.494C26.8211 5.95667 26.6651 5.52767 26.3531 5.207C26.0411 4.88633 25.6207 4.726 25.0921 4.726C24.5807 4.726 24.1691 4.88633 23.8571 5.207C23.5451 5.52767 23.3891 5.95233 23.3891 6.481C23.3891 7.00967 23.5451 7.43433 23.8571 7.755C24.1777 8.07567 24.5981 8.236 25.1181 8.236ZM31.262 12.5L34.369 8.691L34.343 8.665C33.8923 9.159 33.3073 9.406 32.588 9.406C31.808 9.406 31.158 9.12867 30.638 8.574C30.118 8.01933 29.858 7.33033 29.858 6.507C29.858 5.63167 30.1397 4.91667 30.703 4.362C31.275 3.80733 32.0073 3.53 32.9 3.53C33.836 3.53 34.5727 3.82467 35.11 4.414C35.656 5.00333 35.929 5.80067 35.929 6.806C35.929 7.44733 35.799 8.067 35.539 8.665C35.2877 9.25433 34.863 9.92167 34.265 10.667L32.783 12.5H31.262ZM32.913 8.236C33.4243 8.236 33.836 8.08 34.148 7.768C34.46 7.44733 34.616 7.02267 34.616 6.494C34.616 5.95667 34.46 5.52767 34.148 5.207C33.836 4.88633 33.4157 4.726 32.887 4.726C32.3757 4.726 31.964 4.88633 31.652 5.207C31.34 5.52767 31.184 5.95233 31.184 6.481C31.184 7.00967 31.34 7.43433 31.652 7.755C31.9727 8.07567 32.393 8.236 32.913 8.236Z" fill="white"/>
</svg>
