<svg width="38" height="52" viewBox="0 0 38 52" fill="none" xmlns="http://www.w3.org/2000/svg">
<path fill-rule="evenodd" clip-rule="evenodd" d="M19.0058 2.66663C15.0937 2.66663 11.9224 5.85148 11.9224 9.78019C11.9224 13.7089 15.0937 16.8938 19.0058 16.8938C22.9178 16.8938 26.0891 13.7089 26.0891 9.78019C26.0891 5.85148 22.9178 2.66663 19.0058 2.66663ZM19.0058 4.59685C21.8563 4.59685 24.1671 6.91751 24.1671 9.78019C24.1671 12.6429 21.8563 14.9635 19.0058 14.9635C16.1552 14.9635 13.8444 12.6429 13.8444 9.78019C13.8444 6.91751 16.1552 4.59685 19.0058 4.59685ZM16.1068 19.7611C15.0698 19.8331 14.0217 19.9812 12.9878 20.2027C10.9923 20.6138 9.39584 21.435 8.71636 22.7998C8.46008 23.3335 8.33123 23.905 8.3334 24.4836C8.33263 25.058 8.46044 25.6302 8.70753 26.1537C9.35996 27.5027 10.7704 28.2662 12.675 28.6894L13.0162 28.7606C14.022 28.9875 15.0705 29.1403 16.126 29.212C16.2159 29.2384 16.4301 29.2629 16.664 29.2748L16.8563 29.282C16.9552 29.2843 17.0675 29.2849 17.2347 29.2849C18.7518 29.3683 20.3246 29.344 21.8901 29.2108C22.7243 29.1537 23.5642 29.0446 24.397 28.8847L25.0201 28.7554C27.0768 28.3496 28.6168 27.5781 29.2915 26.1552C29.7917 25.0988 29.7917 23.8729 29.2917 22.8169C28.6187 21.3976 27.0983 20.6325 25.0045 20.2012C24.1831 20.0258 23.3483 19.896 22.5076 19.8131L21.893 19.7611C19.9679 19.5913 18.0318 19.5913 16.1068 19.7611ZM21.7248 21.684L21.7417 21.6853C22.7066 21.7532 23.6655 21.8886 24.6116 22.0906C26.1668 22.411 27.2223 22.9422 27.5562 23.6463C27.8076 24.1773 27.8076 24.7943 27.5559 25.3258C27.244 25.9838 26.296 26.4921 24.926 26.8028L24.626 26.8663C23.6614 27.0816 22.7056 27.2203 21.7434 27.2862C20.2506 27.4132 18.7666 27.4361 17.2864 27.3561L16.7616 27.3471C16.6159 27.3396 16.4931 27.3256 16.3793 27.3027C15.4783 27.2347 14.6676 27.1271 13.8804 26.9711L13.4104 26.8716C11.8503 26.5658 10.7856 26.0324 10.4404 25.3186C10.3196 25.0626 10.255 24.7737 10.2554 24.4812C10.2543 24.1904 10.318 23.908 10.4416 23.6504C10.7773 22.9765 11.9056 22.396 13.3814 22.092C14.3344 21.8878 15.2929 21.7525 16.2573 21.6854C18.0881 21.524 19.9117 21.524 21.7248 21.684Z" fill="#4174CB"/>
<path d="M6.118 42.792C6.72467 42.8853 7.20533 43.1467 7.56 43.576C7.91467 44.0053 8.092 44.5513 8.092 45.214C8.092 46.0913 7.80267 46.7773 7.224 47.272C6.65467 47.7573 5.94067 48 5.082 48H0.98V38.2H4.704C5.56267 38.2 6.25333 38.424 6.776 38.872C7.29867 39.32 7.56 39.9267 7.56 40.692C7.56 41.1867 7.434 41.6207 7.182 41.994C6.93 42.3673 6.57533 42.624 6.118 42.764V42.792ZM4.396 39.572H2.436V42.288H4.27C5.40867 42.288 5.978 41.8353 5.978 40.93C5.978 40.482 5.83333 40.146 5.544 39.922C5.264 39.6887 4.88133 39.572 4.396 39.572ZM4.788 46.628C5.32933 46.628 5.74933 46.4927 6.048 46.222C6.356 45.942 6.51 45.5733 6.51 45.116C6.51 44.6587 6.35133 44.2947 6.034 44.024C5.726 43.744 5.264 43.604 4.648 43.604H2.436V46.628H4.788ZM10.0823 42.302C10.7543 41.6487 11.599 41.322 12.6163 41.322C13.6336 41.322 14.4783 41.6487 15.1503 42.302C15.8223 42.9553 16.1583 43.7767 16.1583 44.766C16.1583 45.7553 15.8223 46.5767 15.1503 47.23C14.4783 47.8833 13.6336 48.21 12.6163 48.21C11.599 48.21 10.7543 47.8833 10.0823 47.23C9.4103 46.5767 9.0743 45.7553 9.0743 44.766C9.0743 43.7767 9.4103 42.9553 10.0823 42.302ZM14.1143 43.24C13.7316 42.8573 13.2323 42.666 12.6163 42.666C12.0003 42.666 11.4963 42.8573 11.1043 43.24C10.7216 43.6227 10.5303 44.1313 10.5303 44.766C10.5303 45.4007 10.7216 45.9093 11.1043 46.292C11.4963 46.6747 12.0003 46.866 12.6163 46.866C13.2323 46.866 13.7316 46.6747 14.1143 46.292C14.5063 45.9093 14.7023 45.4007 14.7023 44.766C14.7023 44.1313 14.5063 43.6227 14.1143 43.24ZM22.268 39.04C22.268 39.6467 22.0907 40.1273 21.736 40.482C21.3907 40.8273 20.9333 41 20.364 41C19.7947 41 19.3327 40.8273 18.978 40.482C18.6327 40.1273 18.46 39.6467 18.46 39.04H19.412C19.4307 39.3573 19.524 39.6093 19.692 39.796C19.86 39.9733 20.084 40.062 20.364 40.062C20.644 40.062 20.868 39.9733 21.036 39.796C21.204 39.6093 21.2973 39.3573 21.316 39.04H22.268ZM17.424 48V41.532H18.796V45.83H18.824L22.03 41.532H23.304V48H21.932V43.702H21.904L18.698 48H17.424ZM30.0805 41.532V42.792H27.8265V48H26.4545V42.792H24.2145V41.532H30.0805ZM30.9865 48V41.532H32.3585V45.83H32.3865L35.5925 41.532H36.8665V48H35.4945V43.702H35.4665L32.2605 48H30.9865Z" fill="#333333"/>
</svg>
