<svg width="76" height="76" viewBox="0 0 76 76" fill="none" xmlns="http://www.w3.org/2000/svg">
<g filter="url(#filter0_d_235_4190)">
<rect x="18" y="10" width="48" height="48" rx="24" fill="white"/>
<rect x="26" y="18" width="32" height="32" rx="16" fill="white"/>
<path d="M31.3334 34.3333C31.3334 34.8856 31.7811 35.3333 32.3334 35.3333L47.56 35.3333L43.4918 39.4129C43.1022 39.8036 43.1027 40.436 43.4928 40.8261L43.9596 41.2929C44.3501 41.6834 44.9833 41.6834 45.3738 41.2929L52.6667 34L45.3738 26.7071C44.9833 26.3166 44.3501 26.3166 43.9596 26.7071L43.4928 27.1739C43.1027 27.564 43.1023 28.1964 43.4918 28.5871L47.56 32.6667L32.3334 32.6667C31.7811 32.6667 31.3334 33.1144 31.3334 33.6667L31.3334 34.3333Z" fill="#153E84"/>
</g>
<defs>
<filter id="filter0_d_235_4190" x="0" y="0" width="76" height="76" filterUnits="userSpaceOnUse" color-interpolation-filters="sRGB">
<feFlood flood-opacity="0" result="BackgroundImageFix"/>
<feColorMatrix in="SourceAlpha" type="matrix" values="0 0 0 0 0 0 0 0 0 0 0 0 0 0 0 0 0 0 127 0" result="hardAlpha"/>
<feOffset dx="-4" dy="4"/>
<feGaussianBlur stdDeviation="7"/>
<feColorMatrix type="matrix" values="0 0 0 0 0 0 0 0 0 0 0 0 0 0 0 0 0 0 0.15 0"/>
<feBlend mode="normal" in2="BackgroundImageFix" result="effect1_dropShadow_235_4190"/>
<feBlend mode="normal" in="SourceGraphic" in2="effect1_dropShadow_235_4190" result="shape"/>
</filter>
</defs>
</svg>
