<svg width="32" height="32" viewBox="0 0 32 32" fill="none" xmlns="http://www.w3.org/2000/svg">
<path fill-rule="evenodd" clip-rule="evenodd" d="M16 6.66667C15.5472 6.14512 15.0194 5.68972 14.437 5.30987C13.1502 4.47045 11.5972 4 9.99996 4C5.89329 4 2.66663 7.16512 2.66663 11.1935C2.66663 12.6248 3.00762 13.984 3.59173 15.2771C5.40343 19.2915 9.55431 22.6791 13.1273 25.595C14.1559 26.4346 15.1367 27.235 16 28C16.8632 27.235 17.844 26.4346 18.8726 25.595C22.4456 22.6791 26.5963 19.2916 28.4081 15.2773C28.9923 13.9842 29.3333 12.6249 29.3333 11.1935C29.3333 7.16512 26.1066 4 22 4C20.4027 4 18.8497 4.47045 17.5629 5.30987C16.9806 5.68972 16.4527 6.14512 16 6.66667ZM16 24.4932C16.4303 24.1366 16.8703 23.7769 17.3095 23.4177C17.6816 23.1135 18.0532 22.8097 18.4181 22.5085C19.8787 21.3025 21.3084 20.0774 22.5745 18.7934C24.1413 17.2044 25.3057 15.6751 25.9838 14.1656C26.431 13.1689 26.6666 12.1818 26.6666 11.1935C26.6666 8.68606 24.6825 6.66667 22 6.66667C20.4154 6.66667 18.9367 7.35164 18.0137 8.41482L16 10.7345L13.9862 8.41482C13.0633 7.35164 11.5845 6.66667 9.99996 6.66667C7.31741 6.66667 5.33329 8.68606 5.33329 11.1935C5.33329 12.1818 5.56895 13.1689 6.01614 14.1656C6.69422 15.6751 7.85866 17.2044 9.42542 18.7934C10.6915 20.0774 12.1212 21.3025 13.5819 22.5085C13.9467 22.8097 14.3183 23.1135 14.6904 23.4177C15.1297 23.7769 15.5696 24.1366 16 24.4932Z" fill="#4174CB"/>
</svg>
