<svg width="33" height="32" viewBox="0 0 33 32" fill="none" xmlns="http://www.w3.org/2000/svg">
<path fill-rule="evenodd" clip-rule="evenodd" d="M9.1441 3.75376C4.24865 5.32987 2.06511 10.6743 3.70639 15.7727C4.53925 18.1735 5.89375 20.3313 7.67334 22.1017C10.1146 24.4727 12.7967 26.5592 15.6798 28.3322L16.0072 28.5282C16.3208 28.7159 16.713 28.7126 17.0234 28.5197L17.3291 28.3297C20.2082 26.5592 22.8902 24.4727 25.3232 22.1099C27.1111 20.3313 28.4656 18.1735 29.2915 15.7936C30.9388 10.6774 28.7462 5.33044 23.8493 3.75384L23.495 3.64835C21.2498 3.03082 18.8639 3.33511 16.8526 4.47384L16.4951 4.68577L16.1439 4.47502C14.0225 3.27129 11.4872 3.00008 9.1441 3.75376ZM15.6662 6.4724L15.9285 6.66055C16.2743 6.90819 16.7408 6.90327 17.0813 6.64838C18.8546 5.32079 21.1496 4.93447 23.2521 5.60896C27.0462 6.8305 28.7729 11.0413 27.4419 15.176C26.7199 17.2557 25.5249 19.1595 23.9555 20.7207L23.2515 21.3895C21.3546 23.1523 19.3034 24.748 17.1255 26.1542L16.5016 26.5465L16.692 26.6665C13.9406 24.9745 11.3716 22.9759 9.04105 20.7125C7.48003 19.1595 6.28498 17.2557 5.55605 15.1552C4.23073 11.0374 5.94991 6.82953 9.74201 5.60865C11.7444 4.96456 13.9274 5.2839 15.6662 6.4724Z" fill="#4174CB"/>
</svg>
