<svg width="24" height="24" viewBox="0 0 24 24" fill="none" xmlns="http://www.w3.org/2000/svg">
<path d="M4 8C3.44772 8 3 7.55228 3 7C3 6.44772 3.44772 6 4 6H14C14.5523 6 15 6.44772 15 7C15 7.55228 14.5523 8 14 8H4Z" fill="white"/>
<path d="M3 12C3 12.5523 3.44772 13 4 13H20C20.5523 13 21 12.5523 21 12C21 11.4477 20.5523 11 20 11H4C3.44772 11 3 11.4477 3 12Z" fill="white"/>
<path d="M3 17C3 17.5523 3.44772 18 4 18H14C14.5523 18 15 17.5523 15 17C15 16.4477 14.5523 16 14 16H4C3.44772 16 3 16.4477 3 17Z" fill="white"/>
</svg>
