<svg width="32" height="32" viewBox="0 0 32 32" fill="none" xmlns="http://www.w3.org/2000/svg">
<path fill-rule="evenodd" clip-rule="evenodd" d="M16.0058 2.66663C12.0937 2.66663 8.9224 5.85148 8.9224 9.78019C8.9224 13.7089 12.0937 16.8938 16.0058 16.8938C19.9178 16.8938 23.0891 13.7089 23.0891 9.78019C23.0891 5.85148 19.9178 2.66663 16.0058 2.66663ZM16.0058 4.59685C18.8563 4.59685 21.1671 6.91751 21.1671 9.78019C21.1671 12.6429 18.8563 14.9635 16.0058 14.9635C13.1552 14.9635 10.8444 12.6429 10.8444 9.78019C10.8444 6.91751 13.1552 4.59685 16.0058 4.59685ZM13.1068 19.7611C12.0698 19.8331 11.0217 19.9812 9.98777 20.2027C7.99227 20.6138 6.39584 21.435 5.71636 22.7998C5.46008 23.3335 5.33123 23.905 5.3334 24.4836C5.33263 25.058 5.46044 25.6302 5.70753 26.1537C6.35996 27.5027 7.77045 28.2662 9.67503 28.6894L10.0162 28.7606C11.022 28.9875 12.0705 29.1403 13.126 29.212C13.2159 29.2384 13.4301 29.2629 13.664 29.2748L13.8563 29.282C13.9552 29.2843 14.0675 29.2849 14.2347 29.2849C15.7518 29.3683 17.3246 29.344 18.8901 29.2108C19.7243 29.1537 20.5642 29.0446 21.397 28.8847L22.0201 28.7554C24.0768 28.3496 25.6168 27.5781 26.2915 26.1552C26.7917 25.0988 26.7917 23.8729 26.2917 22.8169C25.6187 21.3976 24.0983 20.6325 22.0045 20.2012C21.1831 20.0258 20.3483 19.896 19.5076 19.8131L18.893 19.7611C16.9679 19.5913 15.0318 19.5913 13.1068 19.7611ZM18.7248 21.684L18.7417 21.6853C19.7066 21.7532 20.6655 21.8886 21.6116 22.0906C23.1668 22.411 24.2223 22.9422 24.5562 23.6463C24.8076 24.1773 24.8076 24.7943 24.5559 25.3258C24.244 25.9838 23.296 26.4921 21.926 26.8028L21.626 26.8663C20.6614 27.0816 19.7056 27.2203 18.7434 27.2862C17.2506 27.4132 15.7666 27.4361 14.2864 27.3561L13.7616 27.3471C13.6159 27.3396 13.4931 27.3256 13.3793 27.3027C12.4783 27.2347 11.6676 27.1271 10.8804 26.9711L10.4104 26.8716C8.85032 26.5658 7.78557 26.0324 7.44036 25.3186C7.31956 25.0626 7.25504 24.7737 7.25542 24.4812C7.25434 24.1904 7.31802 23.908 7.44162 23.6504C7.77728 22.9765 8.90563 22.396 10.3814 22.092C11.3344 21.8878 12.2929 21.7525 13.2573 21.6854C15.0881 21.524 16.9117 21.524 18.7248 21.684Z" fill="#4174CB"/>
</svg>
