<svg width="100" height="16" viewBox="0 0 100 16" fill="none" xmlns="http://www.w3.org/2000/svg">
<g clip-path="url(#clip0_2030_6591)">
<path d="M8.00015 0.39138L10.472 5.40046L16 6.20392L11.9999 10.1027L12.9442 15.6084L8.00015 13.0091L3.05582 15.6084L4.00007 10.1027L0 6.20392L5.52799 5.40046L8.00015 0.39138Z" fill="#FFB745"/>
<path d="M3.23261 15.6223C3.17332 15.6223 3.11404 15.604 3.06421 15.5676C2.976 15.5035 2.93189 15.3949 2.95051 15.2876L3.83575 10.1273L0.0865632 6.47319C0.00866385 6.39701 -0.0194028 6.28331 0.0141054 6.17992C0.0478999 6.07624 0.137541 6.00064 0.245512 5.98489L5.42639 5.23195L7.74361 0.537089C7.79172 0.439142 7.89139 0.377281 8.00022 0.377281C8.10933 0.377281 8.209 0.439142 8.25682 0.537089L10.5738 5.23195L15.7549 5.98489C15.8629 6.00064 15.9522 6.07596 15.9863 6.17992C16.0198 6.28331 15.9921 6.39729 15.9139 6.47319L12.1647 10.1279L13.0496 15.2878C13.068 15.3952 13.0239 15.5038 12.9359 15.5679C12.8477 15.6327 12.7306 15.641 12.6341 15.5897L8.00022 13.1536L3.36578 15.5897C3.32397 15.6115 3.27814 15.6223 3.23261 15.6223ZM0.901928 6.46803L4.34324 9.82257C4.41055 9.88815 4.44148 9.98324 4.42544 10.076L3.61294 14.8124L7.86704 12.5763C7.95038 12.5321 8.04976 12.5321 8.13367 12.5763L12.3872 14.8124L11.575 10.076C11.559 9.98324 11.5899 9.88844 11.6572 9.82257L15.0985 6.46803L10.3429 5.77696C10.2496 5.7635 10.1691 5.70479 10.1273 5.62031L8.00022 1.31121L5.87316 5.62059C5.83135 5.70508 5.75087 5.76379 5.65751 5.77725L0.901928 6.46803Z" fill="#FFB745"/>
</g>
<g clip-path="url(#clip1_2030_6591)">
<path d="M29.0001 0.39138L31.472 5.40046L37 6.20392L32.9999 10.1027L33.9442 15.6084L29.0001 13.0091L24.0558 15.6084L25.0001 10.1027L21 6.20392L26.528 5.40046L29.0001 0.39138Z" fill="#FFB745"/>
<path d="M24.2326 15.6223C24.1733 15.6223 24.114 15.604 24.0642 15.5676C23.976 15.5035 23.9319 15.3949 23.9505 15.2876L24.8358 10.1273L21.0866 6.47319C21.0087 6.39701 20.9806 6.28331 21.0141 6.17992C21.0479 6.07624 21.1375 6.00064 21.2455 5.98489L26.4264 5.23195L28.7436 0.537089C28.7917 0.439142 28.8914 0.377281 29.0002 0.377281C29.1093 0.377281 29.209 0.439142 29.2568 0.537089L31.5738 5.23195L36.7549 5.98489C36.8629 6.00064 36.9522 6.07596 36.9863 6.17992C37.0198 6.28331 36.9921 6.39729 36.9139 6.47319L33.1647 10.1279L34.0496 15.2878C34.068 15.3952 34.0239 15.5038 33.9359 15.5679C33.8477 15.6327 33.7306 15.641 33.6341 15.5897L29.0002 13.1536L24.3658 15.5897C24.324 15.6115 24.2781 15.6223 24.2326 15.6223ZM21.9019 6.46803L25.3432 9.82257C25.4105 9.88815 25.4415 9.98324 25.4254 10.076L24.6129 14.8124L28.867 12.5763C28.9504 12.5321 29.0498 12.5321 29.1337 12.5763L33.3872 14.8124L32.575 10.076C32.559 9.98324 32.5899 9.88844 32.6572 9.82257L36.0985 6.46803L31.3429 5.77696C31.2496 5.7635 31.1691 5.70479 31.1273 5.62031L29.0002 1.31121L26.8732 5.62059C26.8313 5.70508 26.7509 5.76379 26.6575 5.77725L21.9019 6.46803Z" fill="#FFB745"/>
</g>
<g clip-path="url(#clip2_2030_6591)">
<path d="M50.0001 0.39138L52.472 5.40046L58 6.20392L53.9999 10.1027L54.9442 15.6084L50.0001 13.0091L45.0558 15.6084L46.0001 10.1027L42 6.20392L47.528 5.40046L50.0001 0.39138Z" fill="#FFB745"/>
<path d="M45.2326 15.6223C45.1733 15.6223 45.114 15.604 45.0642 15.5676C44.976 15.5035 44.9319 15.3949 44.9505 15.2876L45.8358 10.1273L42.0866 6.47319C42.0087 6.39701 41.9806 6.28331 42.0141 6.17992C42.0479 6.07624 42.1375 6.00064 42.2455 5.98489L47.4264 5.23195L49.7436 0.537089C49.7917 0.439142 49.8914 0.377281 50.0002 0.377281C50.1093 0.377281 50.209 0.439142 50.2568 0.537089L52.5738 5.23195L57.7549 5.98489C57.8629 6.00064 57.9522 6.07596 57.9863 6.17992C58.0198 6.28331 57.9921 6.39729 57.9139 6.47319L54.1647 10.1279L55.0496 15.2878C55.068 15.3952 55.0239 15.5038 54.9359 15.5679C54.8477 15.6327 54.7306 15.641 54.6341 15.5897L50.0002 13.1536L45.3658 15.5897C45.324 15.6115 45.2781 15.6223 45.2326 15.6223ZM42.9019 6.46803L46.3432 9.82257C46.4105 9.88815 46.4415 9.98324 46.4254 10.076L45.6129 14.8124L49.867 12.5763C49.9504 12.5321 50.0498 12.5321 50.1337 12.5763L54.3872 14.8124L53.575 10.076C53.559 9.98324 53.5899 9.88844 53.6572 9.82257L57.0985 6.46803L52.3429 5.77696C52.2496 5.7635 52.1691 5.70479 52.1273 5.62031L50.0002 1.31121L47.8732 5.62059C47.8313 5.70508 47.7509 5.76379 47.6575 5.77725L42.9019 6.46803Z" fill="#FFB745"/>
</g>
<g clip-path="url(#clip3_2030_6591)">
<path d="M71.0001 0.39138L73.472 5.40046L79 6.20392L74.9999 10.1027L75.9442 15.6084L71.0001 13.0091L66.0558 15.6084L67.0001 10.1027L63 6.20392L68.528 5.40046L71.0001 0.39138Z" fill="#FFB745"/>
<path d="M66.2326 15.6223C66.1733 15.6223 66.114 15.604 66.0642 15.5676C65.976 15.5035 65.9319 15.3949 65.9505 15.2876L66.8358 10.1273L63.0866 6.47319C63.0087 6.39701 62.9806 6.28331 63.0141 6.17992C63.0479 6.07624 63.1375 6.00064 63.2455 5.98489L68.4264 5.23195L70.7436 0.537089C70.7917 0.439142 70.8914 0.377281 71.0002 0.377281C71.1093 0.377281 71.209 0.439142 71.2568 0.537089L73.5738 5.23195L78.7549 5.98489C78.8629 6.00064 78.9522 6.07596 78.9863 6.17992C79.0198 6.28331 78.9921 6.39729 78.9139 6.47319L75.1647 10.1279L76.0496 15.2878C76.068 15.3952 76.0239 15.5038 75.9359 15.5679C75.8477 15.6327 75.7306 15.641 75.6341 15.5897L71.0002 13.1536L66.3658 15.5897C66.324 15.6115 66.2781 15.6223 66.2326 15.6223ZM63.9019 6.46803L67.3432 9.82257C67.4105 9.88815 67.4415 9.98324 67.4254 10.076L66.6129 14.8124L70.867 12.5763C70.9504 12.5321 71.0498 12.5321 71.1337 12.5763L75.3872 14.8124L74.575 10.076C74.559 9.98324 74.5899 9.88844 74.6572 9.82257L78.0985 6.46803L73.3429 5.77696C73.2496 5.7635 73.1691 5.70479 73.1273 5.62031L71.0002 1.31121L68.8732 5.62059C68.8313 5.70508 68.7509 5.76379 68.6575 5.77725L63.9019 6.46803Z" fill="#FFB745"/>
</g>
<g clip-path="url(#clip4_2030_6591)">
<path d="M87.2325 15.6223C87.1733 15.6223 87.114 15.604 87.0641 15.5676C86.9759 15.5035 86.9318 15.3949 86.9504 15.2875L87.8357 10.1273L84.0865 6.47317C84.0086 6.39698 83.9805 6.28329 84.014 6.1799C84.0478 6.07622 84.1375 6.00061 84.2455 5.98486L89.4263 5.23193L91.7435 0.537066C91.7917 0.43912 91.8913 0.377258 92.0002 0.377258C92.1093 0.377258 92.2089 0.43912 92.2568 0.537066L94.5737 5.23193L99.7549 5.98486C99.8628 6.00061 99.9522 6.07594 99.9863 6.1799C100.02 6.28329 99.992 6.39727 99.9138 6.47317L96.1646 10.1278L97.0496 15.2878C97.0679 15.3952 97.0238 15.5038 96.9359 15.5679C96.8477 15.6326 96.7305 15.6409 96.634 15.5897L92.0002 13.1536L87.3657 15.5897C87.3239 15.6114 87.2781 15.6223 87.2325 15.6223ZM84.9019 6.46801L88.3432 9.82255C88.4105 9.88813 88.4414 9.98322 88.4254 10.076L87.6129 14.8124L91.867 12.5762C91.9503 12.5321 92.0497 12.5321 92.1336 12.5762L96.3871 14.8124L95.5749 10.076C95.5589 9.98322 95.5898 9.88842 95.6571 9.82255L99.0984 6.46801L94.3429 5.77694C94.2495 5.76348 94.169 5.70477 94.1272 5.62028L92.0002 1.31119L89.8731 5.62057C89.8313 5.70506 89.7508 5.76377 89.6574 5.77723L84.9019 6.46801Z" fill="#FFB745"/>
</g>
<defs>
<clipPath id="clip0_2030_6591">
<rect width="16" height="16" fill="white"/>
</clipPath>
<clipPath id="clip1_2030_6591">
<rect width="16" height="16" fill="white" transform="translate(21)"/>
</clipPath>
<clipPath id="clip2_2030_6591">
<rect width="16" height="16" fill="white" transform="translate(42)"/>
</clipPath>
<clipPath id="clip3_2030_6591">
<rect width="16" height="16" fill="white" transform="translate(63)"/>
</clipPath>
<clipPath id="clip4_2030_6591">
<rect width="16" height="16" fill="white" transform="translate(84)"/>
</clipPath>
</defs>
</svg>
