<svg width="28" height="29" viewBox="0 0 28 29" fill="none" xmlns="http://www.w3.org/2000/svg">
<path d="M22.8112 4.44179C22.5303 4.46223 22.2546 4.52812 21.9949 4.63691H21.9914C21.742 4.73579 20.5564 5.23454 18.7539 5.99054L12.2946 8.71091C7.65973 10.6622 3.10361 12.5837 3.10361 12.5837L3.15786 12.5627C3.15786 12.5627 2.84373 12.6659 2.51561 12.8908C2.31289 13.0198 2.13846 13.1886 2.00286 13.3869C1.84186 13.6232 1.71236 13.9845 1.76048 14.3582C1.83923 14.9899 2.24873 15.3688 2.54273 15.5779C2.84023 15.7897 3.12373 15.8885 3.12373 15.8885H3.13073L7.40336 17.3279C7.59498 17.943 8.70536 21.5935 8.97223 22.4344C9.12973 22.9367 9.28286 23.2508 9.47448 23.4905C9.56723 23.613 9.67573 23.7154 9.80611 23.7977C9.87388 23.8371 9.94615 23.8682 10.0214 23.8904L9.97761 23.8799C9.99073 23.8834 10.0012 23.8939 10.0109 23.8974C10.0459 23.907 10.0695 23.9105 10.1141 23.9175C10.7905 24.1223 11.3339 23.7023 11.3339 23.7023L11.3645 23.6778L13.8871 21.3809L18.1151 24.6245L18.2114 24.6657C19.0925 25.0524 19.985 24.8372 20.4566 24.4574C20.9317 24.075 21.1164 23.5859 21.1164 23.5859L21.147 23.5072L24.4142 6.76929C24.507 6.35629 24.5306 5.96954 24.4282 5.59416C24.3226 5.21426 24.0789 4.88752 23.7449 4.67804C23.4644 4.50751 23.1391 4.42521 22.8112 4.44179ZM22.7229 6.23554C22.7194 6.29066 22.7299 6.28454 22.7054 6.39041V6.40004L19.4687 22.9638C19.4547 22.9874 19.4311 23.039 19.3664 23.0907C19.2981 23.1449 19.2439 23.179 18.9595 23.0662L13.7882 19.1015L10.6645 21.9488L11.3207 17.7575L19.7697 9.88254C20.118 9.55879 20.0016 9.49054 20.0016 9.49054C20.0261 9.09329 19.4757 9.37416 19.4757 9.37416L8.82173 15.9743L8.81823 15.9568L3.71173 14.2374V14.2339L3.69861 14.2313C3.70756 14.2283 3.71632 14.2248 3.72486 14.2208L3.75286 14.2068L3.77998 14.1972C3.77998 14.1972 8.33961 12.2757 12.9745 10.3244C15.295 9.34704 17.633 8.36266 19.4311 7.60316C21.2292 6.84804 22.5584 6.29416 22.6336 6.26441C22.7054 6.23641 22.6712 6.23641 22.7229 6.23641V6.23554Z" fill="#153E84"/>
</svg>
