<svg width="28" height="29" viewBox="0 0 28 29" fill="none" xmlns="http://www.w3.org/2000/svg">
<path fill-rule="evenodd" clip-rule="evenodd" d="M11.4776 9.37345C11.2448 8.75422 10.9758 8.79841 10.7968 8.79163C10.6176 8.78501 10.4607 8.78829 10.2186 8.79223C10.0137 8.79556 9.67814 8.84834 9.38556 9.14294C9.0926 9.43705 8.27179 10.1444 8.21503 11.6435C8.15865 13.1424 9.20378 14.6318 9.34974 14.8403C9.49559 15.0495 11.3455 18.2985 14.4203 19.6347C17.4954 20.9706 17.5115 20.5634 18.0756 20.5335C18.6403 20.504 19.92 19.8638 20.2029 19.1623C20.4858 18.4609 20.5085 17.851 20.4365 17.7209C20.3645 17.5912 20.163 17.507 19.8617 17.3435C19.5601 17.1798 18.0792 16.3866 17.8015 16.2744C17.5236 16.1626 17.3209 16.1044 17.1046 16.4018C16.8882 16.6983 16.2739 17.3626 16.0877 17.5594C15.9006 17.7563 15.7207 17.7745 15.4191 17.6103C15.1183 17.4469 14.1409 17.0881 13.0075 16.007C12.1256 15.1659 11.5467 14.1453 11.3789 13.8339C11.2111 13.5224 11.3778 13.3634 11.5375 13.2177C11.6807 13.086 11.8578 12.8731 12.0183 12.7009C12.178 12.5288 12.2343 12.404 12.3443 12.2042C12.4541 12.0048 12.4099 11.8251 12.3387 11.6698C12.2675 11.5146 11.7104 9.99267 11.4776 9.37345Z" fill="#153E84"/>
<path d="M14.2221 4.44531C16.9701 4.44531 19.553 5.50636 21.4946 7.433C23.4326 9.35603 24.5 11.912 24.5 14.6299C24.5 17.3475 23.4326 19.9034 21.4946 21.8265C19.5528 23.7533 16.97 24.8145 14.2221 24.8145C12.4827 24.8145 10.7637 24.3757 9.25072 23.5457L8.59354 23.1851L7.87915 23.412L4.5185 24.4796L5.57807 21.3543L5.84046 20.5804L5.41548 19.8824C4.45336 18.3021 3.94482 16.4858 3.94482 14.6299C3.94482 11.912 5.01222 9.35603 6.95029 7.43295C8.89196 5.50636 11.4745 4.44531 14.2221 4.44531ZM14.2221 2.69531C7.57996 2.69531 2.19482 8.03834 2.19482 14.6299C2.19482 16.8846 2.82548 18.9934 3.92071 20.7924L2.38495 25.3224C2.1217 26.0989 2.85337 26.8448 3.63477 26.5966L8.40897 25.0799C10.1321 26.0252 12.1138 26.5644 14.2221 26.5644C20.8652 26.5644 26.25 21.2206 26.25 14.6299C26.25 8.03834 20.8652 2.69531 14.2221 2.69531Z" fill="#153E84"/>
</svg>
